<svg xmlns="http://www.w3.org/2000/svg" xmlns:xlink="http://www.w3.org/1999/xlink" width="155.313" height="155.313" viewBox="0 0 155.313 155.313"><defs><style>.a{fill:url(#a);}.b{fill:url(#b);}.c{fill:url(#c);}.d{fill:url(#d);}.e{fill:url(#e);}.f{fill:url(#f);}.g{fill:url(#g);}.h{fill:url(#h);}.i{fill:url(#i);}.j{fill:url(#j);}.k{fill:url(#k);}.l{fill:url(#l);}.m{fill:url(#m);}.n{fill:url(#n);}.o{fill:url(#o);}.p{fill:url(#p);}.q{fill:url(#q);}.r{fill:url(#r);}.s{fill:url(#s);}.t{fill:url(#t);}.u{fill:url(#u);}.v{fill:url(#v);}.w{fill:url(#w);}.x{fill:url(#x);}.y{fill:url(#y);}.z{fill:url(#z);}.aa{fill:url(#aa);}.ab{fill:url(#ab);}.ac{fill:url(#ac);}.ad{fill:url(#ad);}.ae{fill:url(#ae);}.af{fill:url(#af);}.ag{fill:url(#ag);}.ah{fill:url(#ah);}.ai{fill:url(#ai);}.aj{fill:url(#aj);}.ak{fill:url(#ak);}.al{fill:url(#al);}</style><linearGradient id="a" x1="-1.689" y1="-8.775" x2="-1.297" y2="-8.775" gradientUnits="objectBoundingBox"><stop offset="0" stop-color="#ff637b"/><stop offset="1" stop-color="#e63950"/></linearGradient><linearGradient id="b" x1="-3.513" y1="-3.513" x2="-3.119" y2="-3.119" gradientUnits="objectBoundingBox"><stop offset="0" stop-color="#ff9690"/><stop offset="1" stop-color="#f9545b"/></linearGradient><linearGradient id="c" x1="-1.562" y1="-0.275" x2="-1.053" y2="-0.275" xlink:href="#a"/><linearGradient id="d" x1="-2.379" y1="-0.775" x2="-1.985" y2="-0.381" xlink:href="#b"/><linearGradient id="e" x1="-1.562" y1="-4.018" x2="-1.053" y2="-4.018" xlink:href="#a"/><linearGradient id="f" x1="-2.379" y1="-6.251" x2="-1.985" y2="-5.857" xlink:href="#b"/><linearGradient id="g" x1="-0.167" y1="0.5" x2="1.615" y2="0.5" xlink:href="#a"/><linearGradient id="h" x1="0.359" y1="0.359" x2="0.753" y2="0.753" xlink:href="#b"/><linearGradient id="i" x1="-0.167" y1="-1.189" x2="1.615" y2="-1.189" xlink:href="#a"/><linearGradient id="j" x1="0.359" y1="-3.888" x2="0.753" y2="-3.494" xlink:href="#b"/><linearGradient id="k" x1="2.395" y1="2.104" x2="2.788" y2="2.104" xlink:href="#a"/><linearGradient id="l" x1="4.231" y1="-0.016" x2="4.625" y2="0.378" xlink:href="#b"/><linearGradient id="m" x1="2.181" y1="-0.914" x2="2.689" y2="-0.914" xlink:href="#a"/><linearGradient id="n" x1="3.097" y1="-2.754" x2="3.491" y2="-2.36" xlink:href="#b"/><linearGradient id="o" x1="2.181" y1="2.829" x2="2.689" y2="2.829" xlink:href="#a"/><linearGradient id="p" x1="3.097" y1="2.722" x2="3.491" y2="3.116" xlink:href="#b"/><linearGradient id="q" x1="0.164" y1="0.164" x2="0.869" y2="0.869" xlink:href="#b"/><linearGradient id="r" x1="0.556" y1="0.652" x2="-0.217" y2="-0.124" gradientUnits="objectBoundingBox"><stop offset="0" stop-color="#e63950" stop-opacity="0"/><stop offset="0.047" stop-color="#e4354b" stop-opacity="0.047"/><stop offset="0.467" stop-color="#d31822" stop-opacity="0.467"/><stop offset="0.799" stop-color="#c90709" stop-opacity="0.8"/><stop offset="1" stop-color="#c50000"/></linearGradient><linearGradient id="s" x1="0.545" y1="0.461" x2="0.418" y2="0.109" xlink:href="#r"/><linearGradient id="t" x1="-1.28" y1="0.342" x2="-0.515" y2="0.342" xlink:href="#a"/><linearGradient id="u" x1="-1.093" y1="0.076" x2="-0.699" y2="0.471" xlink:href="#b"/><linearGradient id="v" x1="-1.663" y1="-4.978" x2="-1.247" y2="-4.978" xlink:href="#a"/><linearGradient id="w" x1="-3.231" y1="-4.965" x2="-2.836" y2="-4.57" xlink:href="#b"/><linearGradient id="x" x1="-1.66" y1="-1.872" x2="-1.242" y2="-1.872" xlink:href="#a"/><linearGradient id="y" x1="-3.206" y1="-2.001" x2="-2.812" y2="-1.607" xlink:href="#b"/><linearGradient id="z" x1="-1.299" y1="-3.681" x2="-0.552" y2="-3.681" xlink:href="#a"/><linearGradient id="aa" x1="-1.153" y1="-7.078" x2="-0.759" y2="-6.683" xlink:href="#b"/><linearGradient id="ab" x1="1.707" y1="-0.506" x2="2.472" y2="-0.506" xlink:href="#a"/><linearGradient id="ac" x1="1.81" y1="-2.743" x2="2.205" y2="-2.348" xlink:href="#b"/><linearGradient id="ad" x1="0.554" y1="0.614" x2="0.363" y2="-0.542" xlink:href="#r"/><linearGradient id="ae" x1="2.352" y1="3.836" x2="2.767" y2="3.836" xlink:href="#a"/><linearGradient id="af" x1="3.948" y1="2.298" x2="4.343" y2="2.693" xlink:href="#b"/><linearGradient id="ag" x1="2.348" y1="0.78" x2="2.766" y2="0.78" xlink:href="#a"/><linearGradient id="ah" x1="3.923" y1="-0.665" x2="4.318" y2="-0.271" xlink:href="#b"/><linearGradient id="ai" x1="0.68" y1="0.85" x2="-0.526" y2="-0.249" xlink:href="#r"/><linearGradient id="aj" x1="1.74" y1="3.511" x2="2.487" y2="3.511" xlink:href="#a"/><linearGradient id="ak" x1="1.871" y1="4.411" x2="2.265" y2="4.806" xlink:href="#b"/><linearGradient id="al" x1="0.359" y1="0.359" x2="0.753" y2="0.753" xlink:href="#a"/></defs><g transform="translate(117.646 68.775)"><path class="a" d="M386.313,248.481a2.855,2.855,0,0,1,2.855-2.855h20.222a2.855,2.855,0,1,1,0,5.709H389.168A2.855,2.855,0,0,1,386.313,248.481Z" transform="translate(-386.313 -239.6)"/><circle class="b" cx="8.881" cy="8.881" r="8.881" transform="translate(19.905)"/></g><g transform="translate(105.097 20.144)"><path class="c" d="M345.942,118.364a2.855,2.855,0,0,1,0-4.037l14.3-14.3a2.855,2.855,0,0,1,4.037,4.037l-14.3,14.3A2.855,2.855,0,0,1,345.942,118.364Z" transform="translate(-345.106 -89.128)"/><circle class="d" cx="8.881" cy="8.881" r="8.881" transform="translate(12.31)"/></g><g transform="translate(105.097 105.097)"><path class="e" d="M345.943,345.942a2.855,2.855,0,0,1,4.037,0l14.3,14.3a2.855,2.855,0,0,1-4.037,4.037l-14.3-14.3A2.855,2.855,0,0,1,345.943,345.942Z" transform="translate(-345.107 -345.106)"/><circle class="f" cx="8.881" cy="8.881" r="8.881" transform="translate(12.31 12.31)"/></g><g transform="translate(68.775 0)"><path class="g" d="M248.481,64.468a2.855,2.855,0,0,1-2.855-2.855V41.392a2.855,2.855,0,1,1,5.709,0V61.613A2.855,2.855,0,0,1,248.481,64.468Z" transform="translate(-239.6 -26.801)"/><circle class="h" cx="8.881" cy="8.881" r="8.881" transform="translate(0 0)"/></g><g transform="translate(68.775 117.646)"><path class="i" d="M248.481,386.313a2.855,2.855,0,0,1,2.855,2.855v20.222a2.855,2.855,0,1,1-5.709,0V389.168A2.855,2.855,0,0,1,248.481,386.313Z" transform="translate(-239.6 -386.313)"/><circle class="j" cx="8.881" cy="8.881" r="8.881" transform="translate(0 19.905)"/></g><g transform="translate(0 68.775)"><path class="k" d="M64.468,248.481a2.855,2.855,0,0,1-2.855,2.855H41.392a2.855,2.855,0,1,1,0-5.709H61.613A2.855,2.855,0,0,1,64.468,248.481Z" transform="translate(-26.801 -239.6)"/><circle class="l" cx="8.881" cy="8.881" r="8.881" transform="translate(0)"/></g><g transform="translate(20.144 105.097)"><path class="m" d="M118.364,345.943a2.855,2.855,0,0,1,0,4.037l-14.3,14.3a2.855,2.855,0,0,1-4.037-4.037l14.3-14.3A2.855,2.855,0,0,1,118.364,345.943Z" transform="translate(-89.128 -345.107)"/><circle class="n" cx="8.881" cy="8.881" r="8.881" transform="translate(0 12.31)"/></g><g transform="translate(20.144 20.144)"><path class="o" d="M118.364,118.364a2.855,2.855,0,0,1-4.037,0l-14.3-14.3a2.855,2.855,0,0,1,4.037-4.037l14.3,14.3A2.855,2.855,0,0,1,118.364,118.364Z" transform="translate(-89.128 -89.128)"/><circle class="p" cx="8.881" cy="8.881" r="8.881"/></g><circle class="q" cx="54.687" cy="54.687" r="54.687" transform="translate(22.97 22.97)"/><path class="r" d="M307.771,90.3l-8.26,20.488s8.754,2.242,17,16.114l19.759-7.9A54.882,54.882,0,0,0,307.771,90.3Z" transform="translate(-208.3 -62.798)"/><path class="s" d="M141.23,263.988a54.719,54.719,0,0,0,50.909-74.7l-100.727,42.6A54.7,54.7,0,0,0,141.23,263.988Z" transform="translate(-63.574 -131.645)"/><g transform="translate(88.249 19.394)"><path class="t" d="M291.215,112.944a2.29,2.29,0,0,1-1.264-2.981l6.08-15.036a2.29,2.29,0,0,1,4.245,1.717L294.2,111.681a2.289,2.289,0,0,1-2.981,1.264Z" transform="translate(-289.784 -84.417)"/><circle class="u" cx="7.123" cy="7.123" r="7.123" transform="translate(2.964)"/></g><g transform="translate(107.223 88.249)"><path class="v" d="M352.257,291.215a2.29,2.29,0,0,1,2.981-1.264l15.036,6.081a2.29,2.29,0,0,1-1.717,4.245L353.521,294.2A2.29,2.29,0,0,1,352.257,291.215Z" transform="translate(-352.09 -289.784)"/><circle class="w" cx="7.123" cy="7.123" r="7.123" transform="translate(14.448 2.964)"/></g><g transform="translate(107.002 48.995)"><path class="x" d="M351.546,192.144a2.289,2.289,0,0,1,1.214-3l14.932-6.333a2.29,2.29,0,1,1,1.788,4.216l-14.932,6.333A2.289,2.289,0,0,1,351.546,192.144Z" transform="translate(-351.363 -176.006)"/><circle class="y" cx="7.123" cy="7.123" r="7.123" transform="translate(14.315)"/></g><g transform="translate(88.783 107.002)"><path class="z" d="M292.933,351.546a2.289,2.289,0,0,1,3,1.214l6.333,14.932a2.29,2.29,0,1,1-4.216,1.788l-6.333-14.932A2.289,2.289,0,0,1,292.933,351.546Z" transform="translate(-291.537 -351.363)"/><circle class="aa" cx="7.123" cy="7.123" r="7.123" transform="translate(3.287 14.315)"/></g><g transform="translate(49.853 107.223)"><path class="ab" d="M194.439,352.257a2.29,2.29,0,0,1,1.264,2.981l-6.08,15.036a2.29,2.29,0,0,1-4.245-1.717l6.081-15.036a2.289,2.289,0,0,1,2.981-1.264Z" transform="translate(-178.66 -352.09)"/><circle class="ac" cx="7.123" cy="7.123" r="7.123" transform="translate(0 14.448)"/></g><path class="ad" d="M81.112,193.978l20.132,20.132s-1.906-13.576,3.088-18.362l-20.9-8.656Z" transform="translate(-56.411 -130.116)"/><g transform="translate(19.394 49.853)"><path class="ae" d="M112.944,194.439a2.29,2.29,0,0,1-2.981,1.264l-15.036-6.08a2.29,2.29,0,1,1,1.717-4.245l15.036,6.081a2.289,2.289,0,0,1,1.264,2.981Z" transform="translate(-84.417 -178.66)"/><circle class="af" cx="7.123" cy="7.123" r="7.123"/></g><g transform="translate(19.749 88.783)"><path class="ag" d="M113.894,292.933a2.289,2.289,0,0,1-1.214,3l-14.932,6.333a2.29,2.29,0,1,1-1.788-4.216l14.932-6.333A2.289,2.289,0,0,1,113.894,292.933Z" transform="translate(-85.515 -291.537)"/><circle class="ah" cx="7.123" cy="7.123" r="7.123" transform="translate(0 3.287)"/></g><path class="ai" d="M185.249,84.259l8.713,19.8c7.3-3.648,17.063-2.874,17.063-2.874l-19.21-19.21a54.329,54.329,0,0,0-6.566,2.285Z" transform="translate(-128.834 -57.01)"/><g transform="translate(48.995 19.749)"><path class="aj" d="M192.144,113.894a2.289,2.289,0,0,1-3-1.214L182.81,97.748a2.29,2.29,0,1,1,4.216-1.788l6.333,14.932A2.289,2.289,0,0,1,192.144,113.894Z" transform="translate(-176.006 -85.515)"/><circle class="ak" cx="7.123" cy="7.123" r="7.123"/></g><circle class="al" cx="34.835" cy="34.835" r="34.835" transform="translate(42.821 42.821)"/></svg>