<svg xmlns="http://www.w3.org/2000/svg" width="246.809" height="34" viewBox="0 0 246.809 34"><defs><style>.a{fill:#333;}.b{fill:#bb222e;}</style></defs><g transform="translate(-0.6 -1.1)"><g transform="translate(0.6 1.1)"><path class="a" d="M29.036,13.541c-.7-4.559-4.25-8.268-11.05-8.268-7.65,0-12.518,4.327-12.518,13.214,0,6.1,3.323,12.441,12.209,12.441,5.641,0,9.968-2.7,11.359-9.041h4.791C33.132,29.073,26.873,35.1,17.6,35.1c-8.191,0-17-4.559-17-17.077C.6,8.6,6.473,1.1,17.523,1.1,24.091,1.1,32.9,3.882,33.75,13.541H29.036Z" transform="translate(-0.6 -1.1)"/><path class="a" d="M66.5,1.1c13.059,0,18,8.732,18,17s-4.945,17-18,17-18-8.732-18-17S53.445,1.1,66.5,1.1Zm0,4.173c-7.418,0-13.214,4.25-13.214,12.827s5.8,12.827,13.214,12.827S79.718,26.677,79.718,18.1,73.923,5.273,66.5,5.273Z" transform="translate(-11.486 -1.1)"/><path class="a" d="M125.291,2.2h5.177L116.25,34.577h-5.1L96.7,2.2h5.409l11.668,27.355Z" transform="translate(-22.441 -1.35)"/><path class="a" d="M144.8,2.2h4.791V34.577H144.8Z" transform="translate(-33.373 -1.35)"/><path class="a" d="M160.477,2.2h16.382C186.6,2.2,191,8.536,191,17.964c0,9.041-3.941,16.614-13.909,16.614H160.4V2.2Zm16.536,28.2c7.882,0,9.273-6.645,9.273-12.364,0-5.641-1.855-11.668-10.2-11.668H165.345V30.4Z" transform="translate(-36.918 -1.35)"/></g><g transform="translate(160.786 2.491)"><path class="b" d="M235.486,21.623c0,9.2-4.173,13.755-13.755,13.755S207.9,30.818,207.9,21.623V3h8.268V22.086c0,4.1,1.468,6.182,5.564,6.182s5.564-2.086,5.564-6.182V3h8.268Z" transform="translate(-207.9 -2.923)"/><path class="b" d="M275.223,10.009H265.8V34.582h-8.268V10.009H248.1V2.9h27.2Z" transform="translate(-217.036 -2.9)"/><path class="b" d="M290.245,2.9h8.423l11.9,31.682h-8.577l-1.932-5.718h-11.05L287,34.582h-8.5Zm.618,19.936h7.186L294.5,11.709h-.077Z" transform="translate(-223.945 -2.9)"/></g></g></svg>